<svg width="150" height="152" viewBox="0 0 150 152" fill="none" xmlns="http://www.w3.org/2000/svg">
<path d="M28.1836 97.826H45.601C54.4594 97.826 61.8214 94.2946 61.8214 84.9575C61.8214 79.2115 58.8885 76.3984 55.2973 74.7823C57.871 73.2262 60.1455 69.5751 60.1455 65.505C60.1455 56.5868 52.4243 54.4321 44.5237 54.4321H28.1836V97.826ZM35.785 78.3736H45.4813C51.2871 78.3736 53.9805 80.5283 53.9805 84.9575C53.9805 89.2669 51.2871 91.7209 45.9003 91.7209H35.785V78.3736ZM35.785 60.5372H45.2419C49.5514 60.5372 52.4243 62.5123 52.4243 66.343C52.4243 70.5926 49.6711 72.5678 45.2419 72.5678H35.785V60.5372Z" fill="#1C1C32"/>
<path d="M97.2454 83.4013C95.9286 89.3268 91.7389 92.3793 85.8732 92.3793C78.9302 92.3793 73.6032 86.5137 73.6032 75.9794C73.6032 65.505 79.0499 59.8788 85.9331 59.8788C91.5593 59.8788 95.8089 62.9912 97.1257 68.8568H104.428C102.692 59.1605 95.8089 53.654 86.1725 53.654C73.6032 53.654 65.7624 62.3328 65.7624 75.9794C65.7624 89.5662 73.1244 98.6041 85.8134 98.6041C95.8089 98.6041 102.752 93.0976 104.548 83.4013H97.2454Z" fill="#1C1C32"/>
<path d="M117.35 85.7954C119.598 85.7954 121.42 83.9732 121.42 81.7254V81.7254C121.42 79.4775 119.598 77.6553 117.35 77.6553V77.6553C115.102 77.6553 113.28 79.4775 113.28 81.7254V81.7254C113.28 83.9732 115.102 85.7954 117.35 85.7954V85.7954Z" fill="#1C1C32"/>
</svg>
