<svg width="26" height="22" viewBox="0 0 26 22" fill="none" xmlns="http://www.w3.org/2000/svg">
<g clip-path="url(#clip0_6_777)">
<path d="M19.1538 8.94871V6.89743C19.1538 5.75897 18.2307 4.84615 17.1025 4.84615H13.2461C12.4256 4.84615 11.6461 4.51794 11.0717 3.94358L9.79995 2.67179C9.22559 2.09743 8.43584 1.76923 7.62559 1.76923H4.79482C3.09225 1.76923 1.7179 3.14359 1.7179 4.84615V17.6667C1.7179 19.082 2.86661 20.2308 4.282 20.2308M4.282 20.2308C5.69738 20.2308 6.8461 19.082 6.8461 17.6667V12.0256C6.8461 10.3231 8.22046 8.94871 9.92302 8.94871H21.2051C22.9076 8.94871 24.282 10.3231 24.282 12.0256V17.1538C24.282 18.8564 22.9076 20.2308 21.2051 20.2308H4.282Z" stroke="#706F7A" stroke-width="1.53846" stroke-linecap="round" stroke-linejoin="round"/>
</g>
<defs>
<clipPath id="clip0_6_777">
<rect width="24.6154" height="20.5128" fill="white" transform="translate(0.692261 0.743591)"/>
</clipPath>
</defs>
</svg>
